<?xml version="1.0" encoding="utf-8"?>
<!-- Generator: Adobe Illustrator 18.1.1, SVG Export Plug-In . SVG Version: 6.00 Build 0)  -->
<svg version="1.1" id="Layer_1" xmlns="http://www.w3.org/2000/svg" xmlns:xlink="http://www.w3.org/1999/xlink" x="0px" y="0px"
	 viewBox="0 0 1000 1000" enable-background="new 0 0 1000 1000" xml:space="preserve">
<g>
	<path fill="#F8EA82" d="M851.4,455.1c-11.7,3.2-16.5,22.2-14.1,32.3c2.4,10.1-0.4,29.4-8,45.2s-17.4,11.7-25.4,24.7
		c-8,13-3,17-27,33.8s-82.9,22.1-125.2,27.7c-42.4,5.6-27.6-14.6-64.5-4.4c-37,10.1-31-4.2-78.9,0.7
		c-38.2,3.8-121.3-31.4-139.9-37.8c-24.4-8.5-60.3-47.6-67.6-65.5c-7.3-17.9-3.2-74.2-10.3-96.2c-3.3-10.4,1.9-13.1,3-17.5
		c1.3-5.2-0.5-16.1-4.9-19.4c-4.2-3.1-8.2-10-8.4-23.2c-0.2-13.2,3.8-14.6,5.8-37.8c1.9-21.3-10.9-30.2,6.5-56.7
		c9.2-14,2.8-21.7,11.4-27.9c11.6-8.4,10.7-16.5,16.5-22.4c5.5-5.6,28.9-30,12.1-32.1c-9.5-1.2-18,5.4-25,9.3
		c-19.7,10.9-12.6,12-25.6,20.8c-13,8.7-8.4,1.4-24,18.2c-7.5,8.1-10.8,2.7-31,25c-20.3,22.4-21.9,36-34.1,53.8
		c-12.2,17.8-18.5,19.8-28.7,46.8c-10.3,27,3,29-1.9,44.5c-4.9,15.5-18.8,20.1-25.6,35.3c-6.8,15.2,1,44.5-1.6,62.2
		c-2.7,17.7-7.2,35.8-6.2,52.7c1,16.9,17.8,33.9,13.6,49.4c-4.2,15.5-14.2,8.7-17.8,16.8c-3.6,8.1,2.4,37.8,7.5,56.5
		c5.1,18.7,26.6,57.7,40.6,59.7c14,2,16.5-5,22-3.3s19.5,22.5,28.5,34.1s76.3,82.4,103.2,88.7c26.9,6.3,54.3-6.7,73.8,3.9
		c19.4,10.6,75.8,29,118.4,22.5c42.6-6.5,53.1-31,76.5-34.7c23.4-3.7,21.8,4.7,43.5-2.3c21.7-7,19.8-17.1,43-32.5
		c23.2-15.4,45.1-9.1,85.6-40.7c40.5-31.6,56.1-57.8,69.9-82.3c13.9-24.5-0.4-26.8,11.8-52.9c12.2-26.1,21.1-45.5,22.2-84.1
		c0.9-33.2,7.5-64.7-1.2-88.1C864.2,456.9,857,453.5,851.4,455.1z"/>
</g>
<g>
	<linearGradient id="SVGID_1_" gradientUnits="userSpaceOnUse" x1="551.3288" y1="413.5733" x2="263.3628" y2="937.6195">
		<stop  offset="2.222178e-02" style="stop-color:#FFFBC8"/>
		<stop  offset="0.2605" style="stop-color:#FFF799"/>
		<stop  offset="0.3581" style="stop-color:#FFED87"/>
		<stop  offset="0.5113" style="stop-color:#FCE46F"/>
		<stop  offset="0.6679" style="stop-color:#F9DD5C"/>
		<stop  offset="0.8287" style="stop-color:#F8DA50"/>
		<stop  offset="1" style="stop-color:#F7D94C"/>
	</linearGradient>
	<path fill="url(#SVGID_1_)" d="M827.9,544.6c-7.3,14.9-14.9,11-22.6,23.3c-7.7,12.3-15.4,20.4-38.5,36.3c-23.1,16-68.3,25-109,30.3
		c-40.7,5.3-38.2-2.6-73.8,7.1c-35.5,9.6-32.2-13.4-78.3-8.8c-36.8,3.6-124.6-21.3-142.5-27.5c-23.5-8-70.9-62.3-77.9-79.3
		c-7-17-1.9-68.9-18.7-101.7c-4.7-9.2-6.1-40.3-3.8-54.9c2-12.4,14.9-25,13.7-55c-0.6-16.2-5.9-22.7-3.8-43.7
		c1.6-15.9,3.1-23.3,11.3-29.1c11.2-8,14.2-27.7,1.7-19.4c-12.5,8.3-8.1,1.3-23.1,17.3c-7.2,7.7-10.4,2.5-29.9,23.7
		c-19.5,21.2-21,34.2-32.8,51.1c-11.8,16.9-17.7,18.8-27.6,44.4c-9.9,25.6,2.9,27.5-1.8,42.2c-4.7,14.7-18.1,19.1-24.6,33.5
		c-6.5,14.4,1,42.2-1.6,59c-2.6,16.8-6.9,33.9-5.9,50s17.1,32.2,13.1,46.9c-4,14.7-13.7,8.2-17.1,16c-3.4,7.7,2.3,35.9,7.2,53.6
		c4.9,17.7,25.6,54.7,39.1,56.6c13.5,1.9,15.8-4.8,21.2-3.1c5.3,1.7,18.7,21.3,27.4,32.4c8.7,11,73.4,78.2,99.3,84.2
		c25.9,6,60.4-8.1,79.1,2c18.7,10,52.4,29.4,105.8,23.1c41.2-4.9,51.1-29.4,73.6-32.9s21,4.4,41.9-2.2s19.1-16.2,41.4-30.8
		c22.3-14.6,43.4-8.6,82.4-38.6c39-30,53.9-54.8,67.3-78.1c13.3-23.2-0.4-25.4,11.3-50.2c11.7-24.8,20.3-43.2,21.3-79.8
		C853.4,510.8,835.2,529.6,827.9,544.6z"/>
</g>
<linearGradient id="SVGID_2_" gradientUnits="userSpaceOnUse" x1="145.6734" y1="681.7051" x2="208.1904" y2="655.5616">
	<stop  offset="0" style="stop-color:#F7D94C;stop-opacity:0"/>
	<stop  offset="0.6128" style="stop-color:#F5C828;stop-opacity:0.6128"/>
	<stop  offset="1" style="stop-color:#F4C017"/>
</linearGradient>
<path fill="url(#SVGID_2_)" d="M180.3,662.7c18.7,53.3,1.3,60.8-20.3,16.8C138.4,635.3,162.5,612,180.3,662.7z"/>
<linearGradient id="SVGID_3_" gradientUnits="userSpaceOnUse" x1="441.7628" y1="664.0784" x2="405.4819" y2="771.2583">
	<stop  offset="0" style="stop-color:#F7D94C;stop-opacity:0"/>
	<stop  offset="0.6128" style="stop-color:#F5C828;stop-opacity:0.6128"/>
	<stop  offset="1" style="stop-color:#F4C017"/>
</linearGradient>
<path fill="url(#SVGID_3_)" d="M676.4,810c-42.1-2.9-65.8-1.5-84.4-11.2c-18.7-9.7-16.5-26.7-32.9-30.2c-16.3-3.5-44.4,12.1-68.2,14
	c-73.9,6-79.9-11.1-95.8-19.6c-9.2-5-17.5-7.3-27.5-4.3c-12.7,3.8-34.8-8.2-42.2-8.9s-14,2.9-27.3,0.6c-15-2.6-16.1-11.1-18-18.1
	s4.7-12.8,0-19.4c-4.7-6.6-28.8-21.3-38.6-33.9c-9.8-12.6-18.4-31.5-23.7-49c-5.7-18.7-6.3-34.1-10.3-43.5
	c-4-9.4-10.8-13.1-15.2-21.8c-4.4-8.7-6.9-20.6-6.9-20.6s37.2,29.1,39.8,39.3s29.6,84.4,53.3,98.4c23.8,13.9,91.6,57.1,128.7,58.2
	c37,1.1,58.4,12,86.4-3.3s15.8-26.1,36.4-24.7c20.6,1.5,46.8,16.3,63.8,36.7s40.1,38.1,56.5,38.5c16.5,0.4,35.8,2.9,39.8,3.4
	c4,0.4,2.7,9.4,2.7,9.4s-5.2,2.7-10.1,5.8C677.8,808.8,676.4,810,676.4,810z"/>
<linearGradient id="SVGID_4_" gradientUnits="userSpaceOnUse" x1="469.4409" y1="863.514" x2="492.8693" y2="805.803">
	<stop  offset="0" style="stop-color:#F7D94C;stop-opacity:0"/>
	<stop  offset="0.6128" style="stop-color:#F5C828;stop-opacity:0.6128"/>
	<stop  offset="1" style="stop-color:#F4C017"/>
</linearGradient>
<path fill="url(#SVGID_4_)" d="M490.9,811c47.3,8.8,83.5,33,2.1,34.1C411.5,846.2,400.1,794.2,490.9,811z"/>
<linearGradient id="SVGID_5_" gradientUnits="userSpaceOnUse" x1="469.8141" y1="854.8505" x2="481.0162" y2="780.8672">
	<stop  offset="0" style="stop-color:#F7D94C;stop-opacity:0"/>
	<stop  offset="9.833515e-03" style="stop-color:#F7D94D;stop-opacity:9.833515e-03"/>
	<stop  offset="0.6593" style="stop-color:#F8E675;stop-opacity:0.6593"/>
	<stop  offset="1" style="stop-color:#F8EB82"/>
</linearGradient>
<path fill="url(#SVGID_5_)" d="M543.3,820.5c-22.4-20.1-88.4-37.6-121.7-24.9c-17.7,6.7-15.1,20.1-7.7,27.1c0,0-2.5-9.4,12.4-16.4
	C461.3,789.7,543.3,820.5,543.3,820.5z"/>
<path fill="#4C3B6E" d="M689.2,204.1c-10.8,2.7-15.3,14.6-11.7,23c2.2,5.1,7.5,8.2,8.8,11.9c2.6,7.7-4.3,16.5-10.3,25.3
	c-2,2.9-2.8,5.7-2.7,8.2c-7,2.7-17.9,7.5-17.5,17.3c0.4,11.4,1.7,15.4,6.7,27.7c6,14.7,12.1,13,12.2,16.7c0.1,4.1-9.1,8.5-2.9,29.4
	c6.2,20.9,22.8,21,28.2,42.7c5.4,21.7-3.9,29.1,1.9,46.5c5.8,17.4,46.1,12.5,63.6,6.4c17.5-6.1,51.2-21.5,50.4-42.8
	c-0.7-18.4-18.8-17.7-23.9-42.1c-4.9-23.6,2.6-35.4-0.3-50.8c-4.4-23.6-20.4-19.7-21.7-25c-0.8-3.2,1.4-4.3,2.1-8.5
	c3-17.7-9.1-33.2-14.1-35.8c-1.4-0.7-11.4-0.6-17.1-0.4c-0.8-3.3-3-6.9-14.4-9.6c-17.4-4.1-17.7-12.3-16-20.5
	c1-4.9,0.3-7.5-1.3-11.3C707.8,208.4,700.8,201.2,689.2,204.1z M741.2,254.6c0-0.1,0-0.2,0-0.3C741.3,254.4,741.3,254.5,741.2,254.6
	z"/>
<path opacity="0.67" fill="#498968" d="M792.7,562.6c0,0,0,0.1-0.1,0.1C792.6,562.7,792.7,562.6,792.7,562.6z"/>
<path fill="#4C3B6E" d="M303,292.5c4.8,10,17.3,11.8,24.6,6.6c4.5-3.2,6.4-9.1,9.8-11.1c6.9-4.2,16.9,0.7,26.6,4.8
	c3.2,1.3,6.1,1.5,8.5,0.9c4,6.3,10.9,15.9,20.3,13.5c11-2.8,14.6-4.9,25.6-12.4c13-9,10.2-14.6,13.7-15.5c4-1,10.1,7.1,29.1-3.4
	c19-10.5,15.7-26.7,35.7-36.6c20-9.9,29-2.4,44.7-11.7c15.7-9.3,2.8-47.6-6.6-63.4s-31.1-45.5-51.7-40.2
	c-17.7,4.6-13.4,22.1-36.1,32.2c-21.9,9.8-34.8,5-49.2,11c-22,9.2-15,24.1-19.9,26.4c-2.9,1.4-4.4-0.5-8.7-0.3
	c-17.8,0.8-30.4,15.9-31.9,21.3c-0.4,1.5,1.7,11.3,3.1,16.7c-3,1.4-6.1,4.4-6.4,16.1c-0.5,17.8-8.3,19.9-16.7,19.9
	c-4.9,0-7.4,1.3-10.7,3.7C303.4,273.4,297.9,281.8,303,292.5z"/>
<path fill="#4C3B6E" d="M592.8,237.4c-11-1.7-19.8,7.6-19.7,16.6c0,5.5,3.8,10.5,3.5,14.3c-0.6,8.1-10.4,13.5-19.3,19.3
	c-2.9,1.9-4.8,4.2-5.7,6.5c-7.5-0.2-19.4,0-22.8,9.2c-4,10.7-4.4,14.8-4.5,28.2c-0.1,15.9,6.2,16.7,4.8,20.1
	c-1.5,3.8-11.7,4.3-14,26c-2.3,21.7,12.9,28.1,9.5,50.3s-14.8,25.3-16.2,43.6c-1.4,18.3,37.7,29.3,56.2,30.4
	c18.5,1.1,55.5,0,63-20.1c6.5-17.3-10.5-23.6-5.7-48.1c4.6-23.6,16-31.6,19.4-47c5.1-23.5-11.2-26-10.3-31.4c0.5-3.2,2.9-3.4,5.2-7
	c9.6-15.2,4.4-34.1,0.8-38.5c-1-1.2-10.3-5-15.6-6.9c0.6-3.3-0.1-7.5-9.6-14.4c-14.4-10.5-11.6-18.2-6.8-25.1
	c2.8-4.1,3.2-6.8,3.2-10.9C608.3,248.5,604.6,239.2,592.8,237.4z M621.3,304c0-0.1,0-0.2,0.1-0.3C621.4,303.9,621.4,304,621.3,304z"
	/>
<linearGradient id="SVGID_6_" gradientUnits="userSpaceOnUse" x1="520.9034" y1="471.4337" x2="453.2275" y2="792.6124">
	<stop  offset="0" style="stop-color:#935AA5"/>
	<stop  offset="1" style="stop-color:#7864AC"/>
</linearGradient>
<path fill="url(#SVGID_6_)" d="M791.4,784.9c-8.8-12-15.8-12-22-23.9c-6.3-12,2.5-18.9-13.9-32.1S724,718.5,724,718.5
	s26.5-9.2,37.8-49.5c11.3-40.3,2.5-81.9-24.6-110.9c-27.1-29-58.2-49.1-107.2-47.2c-33.1,1.3-38,7.5-48.6,8.8
	c-10.5,1.3-20.7-0.1-30.8,4.3c-10.1,4.4-17.8,14.1-31,11.5c-13.4-2.7-18.7-14.5-18.7-14.5s-6.9-15.8-10.6-22
	c-3.8-6.3-9.5-13.9-9.5-13.9c8-17.6,10.5-33.6,8.3-49.5c-2.5-18.5-15.2-38.8-34.7-46c-19.5-7.2-42.8,0-55.1,12.7
	c-15.1,15.6-15.2,29-22.9,32.1c-12,4.8-29.4-1.1-60,7.9c-35.5,10.4-43.3,24.8-57.6,27.1c-11.3,1.7-20.7-15.2-50.5-9.3
	c-22.3,4.4-36.8,19.6-39.9,43.1s7.4,36.9,16,48.6c10.9,14.8,32.3,23.5,33.8,34.5c2.4,17.5,9.4,41.1,23.3,63.9
	c13.9,22.8,31.5,47.3,54.8,59.3c0,0-11.8,8.8-10.8,19.7c0.7,7.8,6.4,14.1,14.6,14.9c10.9,1.1,19.3-6.3,28.2-2.5
	c8.9,3.8,18.4,10.7,30.3,10.7s18.3-6.9,23.3-4.4c5,2.5,39.9,22.9,88.8,12c38.5-8.6,54.2-30.1,59.2-41.2c0,0,6.3-6.1,18.9,2.7
	c12.6,8.8,21.1,12.6,32.6,27.1s24.1,30.2,51.2,39.7c27.1,9.4,41.6,8.2,55.4,5c0,0,8.8,17.6,39.1,32.8s47.9,10.7,59,1.8
	C796.7,819.2,800.2,796.9,791.4,784.9z"/>
<path fill="#4C3B6E" d="M296.2,709.3c6.7-2.1,16.6-4.4,25.1-5.9c4.6-0.8,0.3-9.4-5-11.7c-6.7-3-14.8-0.2-27.9-4.8
	c-22.6-8-49.3-46.1-54.5-67.7c-3.5-14.5-8-34-10.4-41.3c-3.3-10.1-11.7-10.3-21.5-15.6s-24.2-19.7-24.2-19.7s17.6,20.2,24.3,25.8
	c6.7,5.6,11.7,6,14.2,17.8c5.3,25.1,10.8,59.3,40.6,89.7c12.2,12.5,23.9,23.7,28.8,27C290.6,706.1,296.2,709.3,296.2,709.3z"/>
<path fill="#F7CA89" d="M479.5,608.7c-8.9-26.7-15.2-27.3-21.8-46c-6.6-18.8-23.4-38.5-48.9-46.8c-34.1-11.1-68.1,3.7-92.9,21.9
	c-24.8,18.2-43.3,48.5-45.4,72.2c-2.1,23.5,9.9,47.6,21.5,61.4c11.6,13.8,13.8,27.5,38.8,37c19.6,7.4,36.4,2.8,53.5,5.5
	c17.1,2.8,29.3,6.1,42,0s18.8-13.8,24.3-24.8c5.5-11,18.5-22.9,25.4-33.1C486.4,640.4,483.8,621.7,479.5,608.7z"/>
<path fill="#4C3B6E" d="M441.8,668.2c0.3-0.8-0.5-2.3-2.5-2.9c-3.6-1.2-7.4-1.1-8.1-0.8c-0.9,0.5-1.5,1.3-1.6,2.2
	c-0.1,0.9,0.3,1.7-0.7,2.7c-1.2,1.2-3.3,3.1-9.3,4.5c-2,0.5-8.4,0.4-9.7,2c-1.7,2.1-5.1,2.9-6.8,2.9c-2,0-6.8,6-9.7,7.5
	c-2.8,1.5-7.5,2.3-8.5,3.2c-1,0.9-1.8,1.5-1.2,2.6c0.6,1,1.9,1.9,4.9,1.3c3-0.6,7.1-3.8,11.4-5.7s11.4-6.9,16.7-8.4
	c5.3-1.5,10.8-3.5,13.8-5.3c3-1.8,5.9-4.1,7.9-4.1C440.3,669.8,441.5,668.8,441.8,668.2z"/>
<path fill="#4C3B6E" d="M424.7,682.1c-6,0-17.6,4.6-21.6,8.4c-1.8,1.7-2.1,3.3,1.3,3c3.4-0.3,20.3-7.7,21.3-9
	C426.7,683.4,426.4,682.1,424.7,682.1z"/>
<path fill="#4C3B6E" d="M385.7,665.4c2.9-1.8,6.4-5.2,4.7-7.5c-1.7-2.3-4.5-1.5-5.9-0.4c-1.5,1.2-1,3-2.5,4.5c-1.4,1.4-3,1.4-4.3,3
	c-1,1.3-0.6,3.1,2.1,2.8C382.6,667.4,384,666.5,385.7,665.4z"/>
<path fill="#4C3B6E" d="M401.9,641.8c-3.5-1.5-11.6-1.8-18.7,2.2c-7.1,4-9.1,10.1-9.6,13.5c-0.4,2.7,2.1,3.3,3.2,1.3
	c1.7-2.8,2-7.4,9.8-11.3c8.8-4.4,12-2.2,16.4-1.2C405.7,646.8,406.8,643.8,401.9,641.8z"/>
<path fill="#4C3B6E" d="M390.5,572.9c4.1-1.5,25.7-9.4,35-7.3c0,0-25.8-7.2-42-0.8C371.3,569.7,377,577.7,390.5,572.9z"/>
<path fill="#4C3B6E" d="M322.6,606.3c4.9-3,0.6-8.9-5.7-6c-6.3,2.9-16.9,15.3-16.1,31C300.9,631.3,306.8,615.9,322.6,606.3z"/>
<path fill="#4C3B6E" d="M357.9,634.8c-4.2,0.7-8.5,5.3-11.4,7.9c-2.9,2.6-6.5,7.9-14.5,10.4c-8,2.6-17,1.7-20.3,1.3
	c-2-0.2,0.1,1.8,2.4,2.9c0.7,0.4,2.3,0.7,4.4,1c0,0,0,0,0,0c-2.1,1.9-7.5,3.2-7.5,3.2s5.1,0.3,8.1-0.1c4.7-0.7,7.6-2.5,7.7-2.5
	c-0.7,0.9-1.3,1.8-2.7,3.5c-3.1,3.8-7.7,5.7-7.7,5.7c6.2-0.9,13.1-6.1,16.4-9.4l0.2-0.1c0.1,0,0.1,0,0.2,0c-3.2,3.9-3.5,5.5-5.7,7.5
	c0,0,7.7-3.7,13.5-10.2c0,0,7-5.1,11.2-10.4c3.1-3.9,6.5-7.3,8-8S360.4,634.3,357.9,634.8z"/>
<path fill="#4C3B6E" d="M423.7,607.9c13.8-6.8,17.4-19,17.4-19s2.5,7.4-3.4,15c0,0,3.5-0.4,7.7-4.5c4-3.9,2.2,3.3-3.3,6.5
	c0,0,1.9,0,4.6-1c0,0-5.5,5.7-14.4,9.1c-8.8,3.4-17.8,5.8-25,5c-9.8-1-13.3-5.3-12-5.2C410.5,614.3,419.3,610.1,423.7,607.9z"/>
<path fill="#4C3B6E" d="M405.7,657.8c-2.9,0.4-7.2,0-7.3-2.5c-0.1-2.5,2.2-3.5,3.8-3.5c1.7,0,2.3,1.5,4.1,1.7
	c1.7,0.2,2.8-0.7,4.5-0.3c1.4,0.3,2.1,1.8,0.1,3C408.9,657.4,407.5,657.5,405.7,657.8z"/>
<path fill="#4C3B6E" d="M223.9,547.1c3.2-19.9,7.2-31.4,11.6-37.6c0,0-0.7-13.1-13.1-19.3c-9.7-4.9-21.5,0.4-25.9,8
	c-4.4,7.6-5.7,19.6-1.6,28.3C204.1,545.8,223.9,547.1,223.9,547.1z"/>
<path fill="#4C3B6E" d="M461.8,470.7c7.6-13.6,11.3-36.8-6.3-48.8c-13.1-8.9-32.8-0.5-37.5,19.4c0,0,9.4,1,23.4,10.5
	C454.4,460.6,461.8,470.7,461.8,470.7z"/>
<g>
	<linearGradient id="SVGID_7_" gradientUnits="userSpaceOnUse" x1="765.8896" y1="616.203" x2="764.7228" y2="621.7402">
		<stop  offset="0" style="stop-color:#935AA5"/>
		<stop  offset="1" style="stop-color:#7864AC"/>
	</linearGradient>
	<path opacity="0.56" fill="url(#SVGID_7_)" d="M765.9,621.7c-0.2-2.3-0.6-4.6-0.9-6.9C765.4,617.1,765.7,619.4,765.9,621.7z"/>
	<linearGradient id="SVGID_8_" gradientUnits="userSpaceOnUse" x1="766.6425" y1="638.1039" x2="766.3776" y2="639.3612">
		<stop  offset="0" style="stop-color:#935AA5"/>
		<stop  offset="1" style="stop-color:#7864AC"/>
	</linearGradient>
	<path opacity="0.56" fill="url(#SVGID_8_)" d="M766.6,637.8c0,0.5,0,1,0,1.5C766.5,638.8,766.6,638.3,766.6,637.8z"/>
	<linearGradient id="SVGID_9_" gradientUnits="userSpaceOnUse" x1="763.8163" y1="604.9282" x2="762.5678" y2="610.8531">
		<stop  offset="0" style="stop-color:#935AA5"/>
		<stop  offset="1" style="stop-color:#7864AC"/>
	</linearGradient>
	<path opacity="0.56" fill="url(#SVGID_9_)" d="M764.3,610.9c-0.5-2.5-1.1-5-1.8-7.5C763.1,605.9,763.7,608.4,764.3,610.9z"/>
	<linearGradient id="SVGID_10_" gradientUnits="userSpaceOnUse" x1="762.1848" y1="601.2527" x2="761.7908" y2="603.1227">
		<stop  offset="0" style="stop-color:#935AA5"/>
		<stop  offset="1" style="stop-color:#7864AC"/>
	</linearGradient>
	<path opacity="0.56" fill="url(#SVGID_10_)" d="M762.4,603.2c-0.2-0.8-0.5-1.6-0.7-2.4C761.9,601.5,762.2,602.3,762.4,603.2z"/>
	<linearGradient id="SVGID_11_" gradientUnits="userSpaceOnUse" x1="764.7552" y1="612.1717" x2="764.3924" y2="613.8934">
		<stop  offset="0" style="stop-color:#935AA5"/>
		<stop  offset="1" style="stop-color:#7864AC"/>
	</linearGradient>
	<path opacity="0.56" fill="url(#SVGID_11_)" d="M764.8,613.9c-0.1-0.7-0.3-1.4-0.4-2.2C764.6,612.5,764.7,613.2,764.8,613.9z"/>
	<linearGradient id="SVGID_12_" gradientUnits="userSpaceOnUse" x1="766.2625" y1="623.3456" x2="765.9404" y2="624.874">
		<stop  offset="0" style="stop-color:#935AA5"/>
		<stop  offset="1" style="stop-color:#7864AC"/>
	</linearGradient>
	<path opacity="0.56" fill="url(#SVGID_12_)" d="M766.2,624.9c-0.1-0.6-0.1-1.3-0.2-1.9C766.1,623.6,766.2,624.2,766.2,624.9z"/>
	<linearGradient id="SVGID_13_" gradientUnits="userSpaceOnUse" x1="766.7232" y1="630.3878" x2="766.2786" y2="632.4976">
		<stop  offset="0" style="stop-color:#935AA5"/>
		<stop  offset="1" style="stop-color:#7864AC"/>
	</linearGradient>
	<path opacity="0.56" fill="url(#SVGID_13_)" d="M766.6,632.5c0-0.9,0-1.7-0.1-2.6C766.6,630.7,766.6,631.6,766.6,632.5z"/>
	<linearGradient id="SVGID_14_" gradientUnits="userSpaceOnUse" x1="766.5035" y1="626.6472" x2="766.1939" y2="628.1165">
		<stop  offset="0" style="stop-color:#935AA5"/>
		<stop  offset="1" style="stop-color:#7864AC"/>
	</linearGradient>
	<path opacity="0.56" fill="url(#SVGID_14_)" d="M766.4,628.1c0-0.6-0.1-1.2-0.1-1.8C766.4,626.9,766.4,627.5,766.4,628.1z"/>
	<linearGradient id="SVGID_15_" gradientUnits="userSpaceOnUse" x1="765.72" y1="649.6121" x2="765.4896" y2="650.7056">
		<stop  offset="0" style="stop-color:#935AA5"/>
		<stop  offset="1" style="stop-color:#7864AC"/>
	</linearGradient>
	<path opacity="0.56" fill="url(#SVGID_15_)" d="M765.7,649.4c-0.1,0.4-0.1,0.9-0.2,1.3C765.6,650.2,765.7,649.8,765.7,649.4z"/>
	<linearGradient id="SVGID_16_" gradientUnits="userSpaceOnUse" x1="764.4579" y1="657.5972" x2="764.32" y2="658.2515">
		<stop  offset="0" style="stop-color:#935AA5"/>
		<stop  offset="1" style="stop-color:#7864AC"/>
	</linearGradient>
	<path opacity="0.56" fill="url(#SVGID_16_)" d="M764.5,657.5c0,0.3-0.1,0.5-0.1,0.8C764.4,658,764.4,657.7,764.5,657.5z"/>
	<linearGradient id="SVGID_17_" gradientUnits="userSpaceOnUse" x1="763.7367" y1="661.1192" x2="763.5302" y2="662.0991">
		<stop  offset="0" style="stop-color:#935AA5"/>
		<stop  offset="1" style="stop-color:#7864AC"/>
	</linearGradient>
	<path opacity="0.56" fill="url(#SVGID_17_)" d="M763.8,660.9c-0.1,0.4-0.2,0.8-0.2,1.1C763.6,661.7,763.7,661.3,763.8,660.9z"/>
	<linearGradient id="SVGID_18_" gradientUnits="userSpaceOnUse" x1="766.7114" y1="634.691" x2="766.437" y2="635.993">
		<stop  offset="0" style="stop-color:#935AA5"/>
		<stop  offset="1" style="stop-color:#7864AC"/>
	</linearGradient>
	<path opacity="0.56" fill="url(#SVGID_18_)" d="M766.6,636c0-0.5,0-1,0-1.6C766.6,634.9,766.6,635.4,766.6,636z"/>
	<linearGradient id="SVGID_19_" gradientUnits="userSpaceOnUse" x1="765.2081" y1="653.2404" x2="765.0206" y2="654.1302">
		<stop  offset="0" style="stop-color:#935AA5"/>
		<stop  offset="1" style="stop-color:#7864AC"/>
	</linearGradient>
	<path opacity="0.56" fill="url(#SVGID_19_)" d="M765.2,653.1c-0.1,0.3-0.1,0.7-0.2,1C765.1,653.7,765.2,653.4,765.2,653.1z"/>
	<linearGradient id="SVGID_20_" gradientUnits="userSpaceOnUse" x1="766.1066" y1="646.1356" x2="765.8915" y2="647.1567">
		<stop  offset="0" style="stop-color:#935AA5"/>
		<stop  offset="1" style="stop-color:#7864AC"/>
	</linearGradient>
	<path opacity="0.56" fill="url(#SVGID_20_)" d="M766.1,645.9c0,0.4-0.1,0.8-0.1,1.2C766,646.7,766.1,646.3,766.1,645.9z"/>
	<linearGradient id="SVGID_21_" gradientUnits="userSpaceOnUse" x1="766.4536" y1="641.7541" x2="766.2524" y2="642.709">
		<stop  offset="0" style="stop-color:#935AA5"/>
		<stop  offset="1" style="stop-color:#7864AC"/>
	</linearGradient>
	<path opacity="0.56" fill="url(#SVGID_21_)" d="M766.4,641.5c0,0.4,0,0.8-0.1,1.1C766.4,642.3,766.4,641.9,766.4,641.5z"/>
	<linearGradient id="SVGID_22_" gradientUnits="userSpaceOnUse" x1="524.4984" y1="548.5605" x2="523.2318" y2="554.5716">
		<stop  offset="0" style="stop-color:#935AA5"/>
		<stop  offset="1" style="stop-color:#7864AC"/>
	</linearGradient>
	<path opacity="0.56" fill="url(#SVGID_22_)" d="M526.3,547.7c-2.8,3.6-4.6,6.3-4.6,6.3C522.6,552.8,524.7,550.3,526.3,547.7z"/>
	<linearGradient id="SVGID_23_" gradientUnits="userSpaceOnUse" x1="748.3528" y1="571.2353" x2="747.916" y2="573.3085">
		<stop  offset="0" style="stop-color:#935AA5"/>
		<stop  offset="1" style="stop-color:#7864AC"/>
	</linearGradient>
	<path opacity="0.56" fill="url(#SVGID_23_)" d="M747.2,570.6c0.7,1,1.3,1.9,1.9,2.9C748.5,572.5,747.9,571.5,747.2,570.6z"/>
	<linearGradient id="SVGID_24_" gradientUnits="userSpaceOnUse" x1="760.3143" y1="592.2741" x2="758.676" y2="600.0489">
		<stop  offset="0" style="stop-color:#935AA5"/>
		<stop  offset="1" style="stop-color:#7864AC"/>
	</linearGradient>
	<path opacity="0.56" fill="url(#SVGID_24_)" d="M757.9,590.1c1.4,3.3,2.6,6.7,3.7,10.2C760.5,596.8,759.3,593.4,757.9,590.1z"/>
	<path fill="#D57892" d="M195.7,463.9c14.9-3.1,40.4-4.9,59,12c14.6,13.2,1.4,4.5,31-13.8c25.2-15.6,60-20.2,84.4-19.9
		c22.7,0.3,21-8.7,26.1-17.9c5-9.2,13.3-20,21.8-24c9-4.3,25.1-8.8,35.5-4.2c14.4,6.5,24.2,15.1,28.6,27c4.4,11.9,5.5,32,3.2,40.1
		s-8.5,17.8-13.8,22.4c0,0,16.1,16.2,23.4,35.6c6.6,17.5,11.4,32.4,12.2,48.4c0.6,13.3-1,33.8-3.5,45.4c2.8-10.6,8.3-33,7.7-46.6
		c-0.8-18.4-3.7-29.8-7-38.6c0,0,10.9,8.9,20.2,9.6c5.5,0.4,4.2,4.5,1.9,8.3c3.1-3.9,8.5-7.8,14-10.3c26.6-12,20.5-4.2,12.1,4.2
		c-8.4,8.4-16.4,20.9-14.6,22.4s9.9-6.8,19.5-13.7c9.5-6.9,28.6-13.6,44.7-17.7c57.6-14.6,145.2,18,163.4,85.3
		c-3.8-31.1-24.6-55.9-28.2-59.8c-27.1-29-58.2-49.1-107.2-47.2c-33.1,1.3-38,8.2-48.6,8.8c-11.8,0.6-22.1,0.9-32.3,5.1
		c-19.3,7.9-16.2,13.4-29.5,10.7c-13.4-2.7-18.7-14.5-18.7-14.5s-6.9-15.8-10.6-22c-3.8-6.3-9.5-13.9-9.5-13.9
		c8-17.6,10.5-33.6,8.3-49.5c-2.5-18.5-15.2-38.8-34.7-46c-19.5-7.2-42.8,0-55.1,12.7c-15.1,15.6-15.2,29-22.9,32.1
		c-12,4.8-29.4-1.1-60,7.9c-35.5,10.4-43.3,24.8-57.6,27.1c-11.3,1.7-20.7-15.2-50.5-9.3c-1.8,0.3-3.5,0.8-5.1,1.3
		C203.1,461.2,198,462.6,195.7,463.9z"/>
	<linearGradient id="SVGID_25_" gradientUnits="userSpaceOnUse" x1="503.1416" y1="615.9745" x2="502.0566" y2="621.1238">
		<stop  offset="0" style="stop-color:#935AA5"/>
		<stop  offset="1" style="stop-color:#7864AC"/>
	</linearGradient>
	<path opacity="0.56" fill="url(#SVGID_25_)" d="M503.6,615c-1,3.6-1.6,5.9-1.6,5.9C502.5,619.3,503,617.3,503.6,615z"/>
	<linearGradient id="SVGID_26_" gradientUnits="userSpaceOnUse" x1="198.5208" y1="462.41" x2="198.3303" y2="463.3141">
		<stop  offset="0" style="stop-color:#935AA5"/>
		<stop  offset="1" style="stop-color:#7864AC"/>
	</linearGradient>
	<path opacity="0.56" fill="url(#SVGID_26_)" d="M199.4,462.4c-0.6,0.2-1.2,0.5-1.8,0.7C198.1,462.9,198.7,462.6,199.4,462.4z"/>
	<linearGradient id="SVGID_27_" gradientUnits="userSpaceOnUse" x1="195.6885" y1="463.9047" x2="195.6885" y2="463.9047">
		<stop  offset="0" style="stop-color:#935AA5"/>
		<stop  offset="1" style="stop-color:#7864AC"/>
	</linearGradient>
	<path opacity="0.56" fill="url(#SVGID_27_)" d="M195.7,463.9"/>
	<linearGradient id="SVGID_28_" gradientUnits="userSpaceOnUse" x1="200.3629" y1="461.7455" x2="200.1808" y2="462.6094">
		<stop  offset="0" style="stop-color:#935AA5"/>
		<stop  offset="1" style="stop-color:#7864AC"/>
	</linearGradient>
	<path opacity="0.56" fill="url(#SVGID_28_)" d="M201.2,461.7c-0.6,0.2-1.3,0.4-1.9,0.6C200,462.2,200.6,462,201.2,461.7z"/>
</g>
<path fill="#D57892" d="M725.2,737.4c-3.8,10.9,3.6,38.3,9.4,48.9c5.7,10.6,23.3,26.3,33.8,31.1c0,0-20.8-19.6-26.3-33.2
	c-5.4-13.6,3.6-14.5,8.2-21.1c4.5-6.6,8.2-14.2,5.4-20.8c-2.7-6.6-11.8-13.3-16.6-13.3C734.3,728.9,727.9,729.5,725.2,737.4z"/>
<path fill="#D57892" d="M740,720.3c-20.4-4.7-22.9,5-24.7,8.7c0,0-3.7-7.3-7.3-11.5c-3.7-4.2-12-18.8-30.1-24.8
	c-18.1-6-21.9-6.6-27.5-7.1c0,0,16.1,0.2,27.5,4.9c11.5,4.6,30.3,15.4,37.7,27.7c0,0,5.3-2.7,14.3-0.4
	C738.7,719.9,740,720.3,740,720.3z"/>
<path fill="#4C3B6E" d="M542.7,693.6c17.2-1,23.2-0.5,31.3-16.5c9-17.8,17.2-32.9,27-42.4c9.9-9.5,23.6-20.8,30-23.5
	c0,0-29.2,19-40.3,41.2c-11.2,22.2-18.4,50.9-14.2,67.6c4.3,16.7,11.6,30,25.7,39.9c14.2,9.9,33.7,12.9,48,11.6
	c14.2-1.3,16,0.4,25.4-6.4c0,0-0.4,6,13.7,22.7c14.2,16.7,27,29.2,42.9,36.5c15.9,7.3,26.6,9.5,39,7.3s20-10.1,20-10.1
	s-9.9,18.7-39.7,13.2c-32.8-6-56.7-29.5-63.6-41.6c0,0-21.2,7.2-55.4-5s-47-36.9-56-45.3c-9-8.4-15-13.8-25-19.5
	c-10-5.7-12.8-8.1-21.7-4.7c0,0,5.8-9.4,7.4-13.4C539,701.2,542.7,693.6,542.7,693.6z"/>
<path fill="#4C3B6E" d="M483.3,753.9c19.8-4.7,28-12.5,28-12.5s-18.9,13.6-35,16.9c-16.1,3.3-29.5,5.9-46.5,4
	c-17-2-31.7-6.9-40.8-11s-8.4-5.2-14-3.1s-10.5,4.5-17.8,3.9c-7.4-0.6-19.8-5.6-25.1-8.9c-5.3-3.3-11.7-3.6-14.4-2.2
	c-2.7,1.4-9.4,3-13.5,3c-4.1,0-12.5-1.1-16.4-7.9s-0.7-15.4-0.7-15.4s-1.5,9.5,5.4,14.3c6.9,4.8,15.5-3.6,24.8-2.5
	c9.4,1.1,18.9-0.2,27.5,2.9s18.7-0.2,22-1.7c3.2-1.5,7.5-0.1,13.7,4.5s17.7,10.5,30.9,13.6c13.2,3.1,38.1,6.4,50.6,5.3
	C474.4,756,477.3,755.3,483.3,753.9z"/>
<path fill="#4C3B6E" d="M494.7,300.7c-3.2-6.2-11.2-7.3-15.7-3.9c-2.8,2.1-3.9,5.8-6,7.1c-4.3,2.7-10.7-0.3-17-2.7
	c-2-0.8-3.9-0.9-5.4-0.5c-2.6-3.9-7.2-9.9-13.1-8.3c-6.9,1.9-9.2,3.2-16,8.1c-8.1,5.8-6.2,9.3-8.5,9.9c-2.5,0.6-6.5-4.4-18.4,2.5
	c-11.9,6.8-9.6,17-22.1,23.4s-18.3,1.8-28.2,7.8c-9.8,6-1.1,30,5.2,39.8c6.3,9.8,20.5,28.3,33.5,24.7c11.2-3.1,8.1-14,22.4-20.6
	c13.7-6.4,22-3.5,31.1-7.4c13.9-6,9.1-15.3,12.2-16.8c1.8-0.9,2.8,0.2,5.5,0.1c11.3-0.7,19-10.3,19.9-13.8c0.2-1-1.3-7.1-2.2-10.5
	c1.9-0.9,3.8-2.8,3.8-10.2c0-11.2,5-12.6,10.3-12.7c3.1-0.1,4.7-0.9,6.7-2.4C494.7,312.6,498.1,307.3,494.7,300.7z M471.2,339.7
	c0.1,0,0.1,0,0.2-0.1C471.4,339.7,471.3,339.7,471.2,339.7z"/>
<path fill="#4C3B6E" d="M819.5,443.9c-4.4-2.3-9.5,0.3-10.9,4.2c-0.8,2.4,0,5-0.6,6.6c-1.4,3.4-6.4,4.2-11.1,5.4
	c-1.5,0.4-2.6,1.1-3.4,1.9c-3.2-1.2-8.3-2.9-11.1,0.5c-3.3,4-4.1,5.7-6.1,11.3c-2.4,6.7,0.1,8-0.9,9.3c-1.2,1.4-5.6,0.1-9.8,9
	c-4.2,8.9,1.3,13.9-3.4,22.8c-4.7,8.9-10.1,8.6-13.4,16.1s11.7,18.1,19.4,21.3c7.7,3.2,23.6,8.3,29.8,0.8c5.3-6.4-1-11.6,4.7-21.3
	c5.5-9.4,11.5-11.1,15.2-17.1c5.7-9.2-0.9-12.8,0.3-14.9c0.7-1.3,1.8-1,3.3-2.2c6.4-5,7-13.9,6.1-16.2c-0.3-0.7-3.6-3.6-5.6-5.3
	c0.7-1.3,1.1-3.2-1.9-7.6c-4.6-6.6-2.2-9.5,0.8-11.7c1.8-1.3,2.4-2.4,3-4.2C824.4,450.9,824.2,446.4,819.5,443.9z M821.6,476.5
	c0,0,0-0.1,0.1-0.1C821.7,476.4,821.7,476.5,821.6,476.5z"/>
<path fill="#4C3B6E" d="M638.4,409.9c-4,2-4.6,7-2.5,9.9c1.3,1.8,3.7,2.5,4.5,3.8c1.7,2.7-0.2,6.8-1.7,10.7
	c-0.5,1.3-0.6,2.4-0.3,3.4c-2.5,1.6-6.3,4.5-5.3,8.2c1.2,4.4,2.1,5.8,5.2,10.2c3.7,5.2,6,4,6.3,5.4c0.4,1.6-2.8,4.1,1.6,11.6
	c4.4,7.6,10.9,6.1,15,14.1c4.1,7.9,1.2,11.6,5.1,17.8c3.9,6.2,19.2,0.9,25.5-3s18.1-12.7,15.8-20.9c-2-7.1-9-5.2-13.3-14.3
	c-4.1-8.7-2.3-13.9-4.8-19.6c-3.9-8.8-9.8-5.9-10.8-7.8c-0.6-1.2,0.1-1.8,0-3.5c-0.5-7.1-6.7-12.1-8.9-12.6
	c-0.6-0.2-4.5,0.7-6.7,1.3c-0.6-1.2-1.8-2.4-6.5-2.5c-7.2-0.1-8.1-3.2-8.2-6.6c0-2-0.6-2.9-1.6-4.3S642.7,407.8,638.4,409.9z
	 M663.5,425C663.5,424.9,663.5,424.9,663.5,425C663.5,424.9,663.5,424.9,663.5,425z"/>
<path fill="#4C3B6E" d="M663.6,228.1c2.8-4,0.8-9.3-2.9-10.9c-2.2-1-5-0.5-6.5-1.3c-3.1-1.7-3.4-6.7-4-11.3
	c-0.2-1.5-0.8-2.7-1.5-3.5c1.6-2.9,3.8-7.7,0.8-10.8c-3.5-3.6-5.1-4.5-10.5-7.1c-6.4-3-7.9-0.7-9-1.9c-1.2-1.3,0.5-5.4-7.8-10.4
	c-8.3-5-13.9-0.2-22.1-5.7s-7.3-10.6-14.4-14.6s-19.1,9.4-23.2,16.5s-10.8,22-4.2,28.7c5.7,5.8,11.5,0.3,20.5,6.8
	c8.6,6.3,9.6,12.3,15.2,16.5c8.5,6.4,12.7,0.5,14.7,1.8c1.2,0.8,0.8,1.8,1.8,3.4c4.3,6.7,12.9,8.2,15.3,7.6c0.7-0.2,4-3.1,5.8-4.9
	c1.2,0.8,3.1,1.4,7.7-1.1c7-3.7,9.6-1.2,11.4,2c1.1,1.9,2.1,2.5,3.8,3.3C656.2,232.1,660.7,232.4,663.6,228.1z M631.3,226.8
	C631.3,226.8,631.3,226.8,631.3,226.8C631.3,226.9,631.3,226.8,631.3,226.8z"/>
</svg>
